<svg width="27" height="25" viewBox="0 0 27 25" fill="none" xmlns="http://www.w3.org/2000/svg">
<path d="M26.4568 11.1107L18.6064 3.2498C16.5098 1.16876 13.6686 0 10.7065 0C7.74437 0 4.90324 1.16876 2.8066 3.2498L2.79613 3.26022L1.19369 4.90716C1.0277 5.08457 0.938259 5.31965 0.94458 5.56191C0.950901 5.80418 1.05248 6.03432 1.2275 6.20294C1.40253 6.37155 1.63705 6.4652 1.88072 6.46377C2.12439 6.46235 2.35779 6.36596 2.5308 6.19531L4.12859 4.55416C4.7715 3.91507 5.50505 3.37307 6.3059 2.94541L11.7172 8.33297L0.545502 19.4437C0.372559 19.6157 0.235371 19.8199 0.141773 20.0446C0.0481748 20.2693 0 20.5101 0 20.7533C0 20.9965 0.0481748 21.2374 0.141773 21.4621C0.235371 21.6868 0.372559 21.8909 0.545502 22.0629L2.95323 24.4575C3.12614 24.6295 3.33141 24.7659 3.55734 24.859C3.78327 24.9521 4.02543 25 4.26998 25C4.51453 25 4.75668 24.9521 4.98261 24.859C5.20854 24.7659 5.41382 24.6295 5.58672 24.4575L16.7584 13.3467L18.4272 15.0064L20.4823 17.048C20.6552 17.22 20.8605 17.3564 21.0864 17.4495C21.3123 17.5426 21.5545 17.5905 21.799 17.5905C22.0436 17.5905 22.2858 17.5426 22.5117 17.4495C22.7376 17.3564 22.9429 17.22 23.1158 17.048L26.4545 13.7275C26.8034 13.3806 26.9996 12.9102 27 12.4196C27.0004 11.9289 26.8051 11.4582 26.4568 11.1107ZM4.2694 23.1473L1.86283 20.7527L9.7761 12.8826L12.1827 15.2772L4.2694 23.1473ZM16.0997 11.3792L13.5 13.9659L11.0923 11.5736L13.6932 8.98689C13.7797 8.9009 13.8484 8.79878 13.8953 8.68638C13.9421 8.57398 13.9662 8.45349 13.9662 8.33182C13.9662 8.21014 13.9421 8.08966 13.8953 7.97725C13.8484 7.86485 13.7797 7.76274 13.6932 7.67675L8.18414 2.19891C9.77579 1.75308 11.4581 1.73692 13.0581 2.15209C14.6582 2.56725 16.1181 3.39875 17.2879 4.5611L22.4339 9.71256L19.0858 13.0388L17.4171 11.3792C17.3306 11.2931 17.2279 11.2248 17.1149 11.1782C17.0019 11.1316 16.8808 11.1076 16.7584 11.1076C16.6361 11.1076 16.5149 11.1316 16.4019 11.1782C16.2889 11.2248 16.1862 11.2931 16.0997 11.3792ZM21.802 15.7378L20.4055 14.349L23.7407 11.0239L25.1372 12.4127L21.802 15.7378Z" fill="#007AFF"/>
</svg>
