<svg width="23" height="24" viewBox="0 0 23 24" fill="none" xmlns="http://www.w3.org/2000/svg">
<path d="M1.35302 23.5V19.9062L19.2318 0.91975C19.3807 0.761625 19.5376 0.652375 19.7027 0.592C19.8678 0.531625 20.0319 0.500958 20.1952 0.5C20.3657 0.5 20.5361 0.530667 20.7066 0.592C20.878 0.652375 21.0268 0.761625 21.1531 0.91975L22.6049 2.46363C22.7538 2.59779 22.857 2.75592 22.9148 2.938C22.9716 3.11913 23 3.29977 23 3.47994C23 3.65531 22.9716 3.83069 22.9148 4.00606C22.8579 4.18144 22.7542 4.34819 22.6036 4.50631L4.73557 23.5H1.35302ZM2.70604 22.0625H4.15783L18.4403 6.89687L17.7273 6.10337L16.9804 5.34581L2.70604 20.5201V22.0625ZM17.7273 6.10337L16.9804 5.34581L18.4403 6.89687L17.7273 6.10337ZM13.8942 23.5C15.3897 23.5 16.7784 23.1215 18.0601 22.3644C19.3419 21.6073 19.9828 20.5483 19.9828 19.1875C19.9828 18.3624 19.7212 17.6293 19.198 16.9881C18.6748 16.347 17.9131 15.8161 16.9128 15.3954L15.8791 16.4936C16.745 16.807 17.4201 17.1951 17.9045 17.658C18.3889 18.1209 18.6306 18.6307 18.6297 19.1875C18.6297 19.9963 18.1621 20.6777 17.2267 21.2316C16.2904 21.7855 15.1795 22.0625 13.8942 22.0625C13.702 22.0625 13.541 22.131 13.4111 22.2681C13.2813 22.4051 13.2168 22.5762 13.2177 22.7812C13.2186 22.9863 13.2831 23.1574 13.4111 23.2944C13.5392 23.4315 13.7002 23.5 13.8942 23.5ZM2.18378 14.1893L3.17148 13.1112C2.56443 12.8275 2.10981 12.5333 1.80764 12.2286C1.50456 11.9229 1.35302 11.6071 1.35302 11.2812C1.35302 10.8462 1.60378 10.4202 2.1053 10.0033C2.60592 9.5874 3.55393 9.06127 4.94935 8.42494C6.72542 7.62569 7.92329 6.90502 8.54297 6.26294C9.16175 5.62277 9.47115 4.89971 9.47115 4.09375C9.47115 3.053 9.03141 2.19385 8.15195 1.51631C7.27249 0.838771 6.13369 0.5 4.73557 0.5C3.89399 0.5 3.09481 0.663875 2.33802 0.991625C1.58033 1.32033 1.03055 1.72283 0.688687 2.19913C0.562405 2.36396 0.508736 2.54125 0.527678 2.731C0.54662 2.92075 0.633665 3.08031 0.788811 3.20969C0.942154 3.32469 1.10452 3.3726 1.2759 3.35344C1.44548 3.33331 1.59341 3.25569 1.71969 3.12056C2.08771 2.72956 2.52383 2.43488 3.02806 2.2365C3.53319 2.03717 4.10236 1.9375 4.73557 1.9375C5.79905 1.9375 6.6289 2.15025 7.22513 2.57575C7.82046 3.00317 8.11812 3.50917 8.11812 4.09375C8.11812 4.59496 7.86872 5.04777 7.3699 5.45219C6.87109 5.8566 5.88564 6.40621 4.41355 7.101C2.7304 7.88396 1.57401 8.5754 0.944408 9.17531C0.314803 9.77523 0 10.4772 0 11.2812C0 11.8639 0.187619 12.3972 0.562856 12.8812C0.937192 13.3642 1.4784 13.8002 2.18378 14.1893Z" fill="#007AFF"/>
</svg>
