<svg width="25" height="28" viewBox="0 0 25 28" fill="none" xmlns="http://www.w3.org/2000/svg">
<path d="M12.3663 1.10034L23.7325 7.66284V19.1035C23.7325 19.6154 23.5977 20.1184 23.3417 20.5618C23.0857 21.0051 22.7175 21.3733 22.2742 21.6293L13.8246 26.5089C13.3812 26.7649 12.8782 26.8996 12.3663 26.8996C11.8543 26.8996 11.3513 26.7649 10.9079 26.5089L2.45833 21.6293C2.01495 21.3733 1.64677 21.0051 1.39078 20.5618C1.13479 20.1184 1.00001 19.6154 1 19.1035V7.66284L12.3663 1.10034Z" stroke="#007AFF" stroke-width="1.5" stroke-linecap="round" stroke-linejoin="round"/>
<path d="M12.3662 6.93359V14.2253M12.3662 14.2253L6.05164 17.8711M12.3662 14.2253L18.6808 17.8711" stroke="#007AFF" stroke-width="1.5" stroke-linecap="round" stroke-linejoin="round"/>
</svg>
