<svg width="27" height="28" viewBox="0 0 27 28" fill="none" xmlns="http://www.w3.org/2000/svg">
<g clip-path="url(#clip0_304_185)">
<path d="M6.75 13.5576V20.7501H13.9425L12.4425 19.2501H8.25V15.0576L6.75 13.5576Z" fill="#007AFF"/>
<path d="M26.1525 24.7175L24 22.535V24.5H3.00001V21.3875H4.50001V20.1875H3.00001V15.2H4.50001V14H3.00001V9.19997H4.50001V7.99997H3.00001V3.80747L14.955 15.695V13.58L2.78251 1.46747C2.67761 1.3617 2.54358 1.28956 2.39752 1.26026C2.25146 1.23096 2.09998 1.24581 1.9624 1.30294C1.82482 1.36006 1.70736 1.45687 1.62501 1.58101C1.54266 1.70515 1.49915 1.851 1.50001 1.99997V25.25C1.50001 25.4489 1.57903 25.6396 1.71968 25.7803C1.86033 25.9209 2.0511 26 2.25001 26H25.62C25.769 26.0008 25.9148 25.9573 26.039 25.875C26.1631 25.7926 26.2599 25.6752 26.317 25.5376C26.3742 25.4 26.389 25.2485 26.3597 25.1025C26.3304 24.9564 26.2583 24.8224 26.1525 24.7175Z" fill="#007AFF"/>
<path d="M18 22.9999H21C21.3978 22.9999 21.7794 22.8419 22.0607 22.5606C22.342 22.2793 22.5 21.8978 22.5 21.4999V7.02494L20.775 3.85244C20.6416 3.62131 20.4489 3.42995 20.2169 3.29811C19.9849 3.16627 19.7218 3.09873 19.455 3.10244C19.1821 3.10461 18.915 3.18118 18.6824 3.32391C18.4498 3.46664 18.2605 3.67012 18.135 3.91244L16.5 7.03994V21.4999C16.5 21.8978 16.658 22.2793 16.9393 22.5606C17.2206 22.8419 17.6022 22.9999 18 22.9999ZM18 7.39994L19.455 4.57244L21 7.40744V18.4999H18V7.39994ZM18 19.7224H21V21.5524H18V19.7224Z" fill="#007AFF"/>
</g>
<defs>
<clipPath id="clip0_304_185">
<rect width="27" height="27" fill="white" transform="translate(0 0.5)"/>
</clipPath>
</defs>
</svg>
