<svg width="21" height="26" viewBox="0 0 21 26" fill="none" xmlns="http://www.w3.org/2000/svg">
<path d="M5.85938 2.0784C5.84623 2.08287 5.83402 2.08974 5.82338 2.09865C4.74814 2.85 3.87028 3.84993 3.26446 5.01339C2.65864 6.17685 2.34278 7.46942 2.34375 8.78115C2.34342 10.2196 2.7235 11.6325 3.44544 12.8766C4.16737 14.1207 5.20549 15.1518 6.4545 15.8653C7.09575 16.2332 7.55925 16.9397 7.51313 17.7575V17.7598L7.1565 24.575C7.14487 24.7985 7.04493 25.0082 6.87868 25.158C6.71243 25.3078 6.49348 25.3854 6.27 25.3738C6.04652 25.3621 5.83682 25.2622 5.68703 25.096C5.53723 24.9297 5.45962 24.7108 5.47125 24.4873L5.82788 17.6675V17.663C5.83463 17.5618 5.775 17.4212 5.61638 17.33C4.1093 16.4689 2.85671 15.2246 1.98562 13.7232C1.11453 12.2219 0.655905 10.5169 0.656252 8.78115C0.655153 7.19814 1.03628 5.63827 1.76724 4.23413C2.4982 2.82999 3.55738 1.62309 4.85475 0.716029C5.13282 0.516752 5.46337 0.403673 5.80524 0.39087C6.1471 0.378068 6.48518 0.466108 6.77738 0.644029C7.32188 0.972529 7.6875 1.5834 7.6875 2.28653V7.58978C7.68749 7.63783 7.69979 7.68508 7.72322 7.72703C7.74666 7.76898 7.78045 7.80422 7.82138 7.8294L10.3526 9.38753C10.4426 9.44378 10.5574 9.44378 10.6474 9.38753L13.1786 7.8294C13.2196 7.80422 13.2533 7.76898 13.2768 7.72703C13.3002 7.68508 13.3125 7.63783 13.3125 7.58978V2.28765C13.3125 1.5834 13.6781 0.972529 14.2238 0.644029C14.5158 0.466347 14.8537 0.378441 15.1953 0.391242C15.537 0.404043 15.8673 0.516987 16.1453 0.716029C17.4428 1.6232 18.5021 2.83027 19.233 4.23463C19.964 5.63898 20.345 7.19908 20.3438 8.78228C20.3438 10.518 19.8849 12.2228 19.0136 13.7239C18.1423 15.2251 16.8896 16.4691 15.3825 17.33C15.225 17.4212 15.1654 17.5618 15.171 17.663V17.6675L15.5288 24.4873C15.5345 24.5979 15.5184 24.7086 15.4814 24.8131C15.4444 24.9175 15.3871 25.0136 15.313 25.096C15.2388 25.1783 15.1491 25.2452 15.0491 25.2928C14.9491 25.3405 14.8407 25.368 14.73 25.3738C14.6193 25.3795 14.5086 25.3635 14.4042 25.3264C14.2998 25.2894 14.2036 25.2322 14.1213 25.158C14.039 25.0838 13.9721 24.9942 13.9244 24.8941C13.8768 24.7941 13.8493 24.6857 13.8435 24.575L13.4869 17.7598V17.7575C13.4408 16.9397 13.9031 16.2332 14.5444 15.8653C15.7936 15.152 16.8319 14.121 17.5541 12.8768C18.2762 11.6327 18.6565 10.2197 18.6563 8.78115C18.6572 7.46942 18.3414 6.17685 17.7355 5.01339C17.1297 3.84993 16.2519 2.85 15.1766 2.09865C15.166 2.08974 15.1538 2.08287 15.1406 2.0784L15.1294 2.07728C15.126 2.07728 15.1136 2.07728 15.0945 2.08853C15.054 2.11328 15 2.1774 15 2.28765V7.58865C15 8.27265 14.6456 8.90715 14.0629 9.2649L11.5316 10.823C11.2214 11.0139 10.8643 11.115 10.5 11.115C10.1357 11.115 9.77862 11.0139 9.46838 10.823L6.93713 9.26603C6.65097 9.08998 6.41463 8.84362 6.25059 8.55041C6.08656 8.25719 6.00029 7.92688 6 7.5909V2.28653C6 2.17628 5.946 2.11215 5.9055 2.08853C5.89464 2.08251 5.88286 2.07833 5.87063 2.07615L5.85938 2.0784Z" fill="#007AFF"/>
</svg>
