<svg width="18" height="21" viewBox="0 0 18 21" fill="none" xmlns="http://www.w3.org/2000/svg">
<path d="M13.995 3.1725C13.226 2.29457 12.8022 1.16711 12.8025 0H9.32625V13.95C9.29944 14.7049 8.98073 15.4199 8.43723 15.9446C7.89374 16.4692 7.16788 16.7624 6.4125 16.7625C4.815 16.7625 3.4875 15.4575 3.4875 13.8375C3.4875 11.9025 5.355 10.4513 7.27875 11.0475V7.4925C3.3975 6.975 0 9.99 0 13.8375C0 17.5837 3.105 20.25 6.40125 20.25C9.93375 20.25 12.8025 17.3813 12.8025 13.8375V6.76125C14.2121 7.77358 15.9045 8.31673 17.64 8.31375V4.8375C17.64 4.8375 15.525 4.93875 13.995 3.1725Z" fill="#F8F8F8"/>
</svg>
