<svg width="23" height="16" viewBox="0 0 23 16" fill="none" xmlns="http://www.w3.org/2000/svg">
<path d="M9 11.25L14.8387 7.875L9 4.5V11.25ZM22.005 2.44125C22.1512 2.97 22.2525 3.67875 22.32 4.57875C22.3988 5.47875 22.4325 6.255 22.4325 6.93L22.5 7.875C22.5 10.3387 22.32 12.15 22.005 13.3088C21.7237 14.3212 21.0712 14.9737 20.0588 15.255C19.53 15.4012 18.5625 15.5025 17.0775 15.57C15.615 15.6488 14.2762 15.6825 13.0387 15.6825L11.25 15.75C6.53625 15.75 3.6 15.57 2.44125 15.255C1.42875 14.9737 0.77625 14.3212 0.495 13.3088C0.34875 12.78 0.2475 12.0712 0.18 11.1713C0.10125 10.2713 0.0674999 9.495 0.0674999 8.82L0 7.875C0 5.41125 0.18 3.6 0.495 2.44125C0.77625 1.42875 1.42875 0.77625 2.44125 0.495C2.97 0.34875 3.9375 0.2475 5.4225 0.18C6.885 0.10125 8.22375 0.0674999 9.46125 0.0674999L11.25 0C15.9637 0 18.9 0.18 20.0588 0.495C21.0712 0.77625 21.7237 1.42875 22.005 2.44125Z" fill="#F8F8F8"/>
</svg>
